<svg xmlns="http://www.w3.org/2000/svg" viewBox="0 0 15.166 15.166">
  <defs>
    <style>
      .cls-1 {
        fill: #191919;
      }
    </style>
  </defs>
  <path id="icons8-info-squared-filled" class="cls-1" d="M17.36,4H5.805A1.806,1.806,0,0,0,4,5.805V17.36a1.806,1.806,0,0,0,1.805,1.805H17.36a1.806,1.806,0,0,0,1.805-1.805V5.805A1.806,1.806,0,0,0,17.36,4ZM12.305,16.14c0,.083-.069.137-.173.137h-1.1c-.1,0-.173-.054-.173-.137V9.915c0-.083.069-.137.173-.137h1.1c.1,0,.173.054.173.137Zm0-7.962a.151.151,0,0,1-.166.155H11.023a.15.15,0,0,1-.162-.155V7.044a.15.15,0,0,1,.162-.155h1.116a.151.151,0,0,1,.166.155Z" transform="translate(-4 -4)"/>
</svg>
