<svg xmlns="http://www.w3.org/2000/svg" viewBox="0 0 21.461 13.242">
  <defs>
    <style>
      .cls-1 {
        fill: #191919;
      }
    </style>
  </defs>
  <g id="icons8-behance-filled" transform="translate(-1 -6.75)">
    <path id="Path_12" data-name="Path 12" class="cls-1" d="M1,6.75V19.992H7.4c.593,0,4.675-.12,4.675-3.847a3.261,3.261,0,0,0-2.416-3.355,2.849,2.849,0,0,0,1.789-2.751c0-1-.143-3.288-4.228-3.288ZM15.584,7.98V9.188h4.943V7.98ZM3.908,9.009H6.637c.257,0,1.991-.137,1.991,1.521A1.561,1.561,0,0,1,6.86,12.1H3.908Zm14.271,1.275a4.426,4.426,0,0,0-4.518,4.653,4.317,4.317,0,0,0,4.518,4.653,3.938,3.938,0,0,0,4.138-2.975H20.169a2.066,2.066,0,0,1-1.9,1.163,2.012,2.012,0,0,1-2.17-2.259h6.352C22.579,13.1,21.523,10.284,18.179,10.284ZM18.111,12.1a1.8,1.8,0,0,1,1.364.492A2.417,2.417,0,0,1,20.035,14H16.1a2.848,2.848,0,0,1,.112-.582,1.715,1.715,0,0,1,.313-.626,1.993,1.993,0,0,1,.626-.492A2.059,2.059,0,0,1,18.111,12.1Zm-14.2,1.991H7.062a1.816,1.816,0,0,1,2.1,1.9c0,1.747-1.859,1.745-2.147,1.745H3.908Z" transform="translate(0 0)"/>
  </g>
</svg>
