<svg xmlns="http://www.w3.org/2000/svg" viewBox="0 0 14.057 22.089">
  <defs>
    <style>
      .cls-1 {
        fill: #191919;
      }
    </style>
  </defs>
  <path id="Path_15" data-name="Path 15" class="cls-1" d="M23.551,3H12.506A1.509,1.509,0,0,0,11,4.506V23.583a1.509,1.509,0,0,0,1.506,1.506H23.551a1.509,1.509,0,0,0,1.506-1.506V4.506A1.509,1.509,0,0,0,23.551,3ZM18.028,4.255a.5.5,0,1,1-.5.5A.5.5,0,0,1,18.028,4.255Zm1.506,19.328H16.522a.5.5,0,0,1,0-1h3.012a.5.5,0,0,1,0,1Zm3.012-2.008H13.51V6.012h9.037Z" transform="translate(-11 -3)"/>
</svg>
