<svg xmlns="http://www.w3.org/2000/svg" viewBox="0 0 16.593 16.48">
  <defs>
    <style>
      .cls-1 {
        fill: #191919;
      }
    </style>
  </defs>
  <g id="icons8-room-filled" transform="translate(-8.694 -8.961)">
    <path id="Path_13" data-name="Path 13" class="cls-1" d="M9.936,2.312,2.248,5.119A.347.347,0,0,0,2,5.446v9.446l7.936-2.841Zm.721,0v9.739l2.164.755V6.742l3.246,1.195v6.019l2.525.9V5.446a.347.347,0,0,0-.248-.327ZM7.771,6.528v3.641L4.525,11.432V7.825ZM10.3,12.694l-8,2.852,7.891,3.213c.037,0,.075.034.147.034a.218.218,0,0,0,.147-.034L18.3,15.546Z" transform="translate(6.694 6.648)"/>
  </g>
</svg>
