<svg xmlns="http://www.w3.org/2000/svg" viewBox="0 0 16.575 16.575">
  <defs>
    <style>
      .cls-1 {
        fill: #191919;
      }
    </style>
  </defs>
  <path id="Path_14" data-name="Path 14" class="cls-1" d="M8.826,13.762l-.37,2.368a5.908,5.908,0,0,0-.98.426L5.5,15.113,3.424,17.185l1.369,2a7.572,7.572,0,0,0-.407.98L2,20.607v2.886l2.368.426a5.891,5.891,0,0,0,.425,1L3.35,26.841l2.072,2.072,2-1.369a7.583,7.583,0,0,0,.98.407l.37,2.386h2.9l.425-2.368a5.815,5.815,0,0,0,1-.425l1.979,1.443,2.072-2.072-1.424-2a7.793,7.793,0,0,0,.389-.98l2.46-.444v-2.9l-2.423-.37a5.826,5.826,0,0,0-.426-.98l1.424-1.979L15.1,15.113l-2.016,1.443a7.532,7.532,0,0,0-.962-.407l-.37-2.386Zm1.461,5.92A2.368,2.368,0,1,1,7.92,22.05,2.375,2.375,0,0,1,10.287,19.682Z" transform="translate(-2 -13.762)"/>
</svg>
